ClashTitans.1080p.DTS.x264.mkv
******************************

TiTLE......  Clash of the Titans
YEAR.......  2010
GENRE......  Action | Adventure | Drama | Fantasy 
iMDB RATE..  User Rating: 6.0/10 (30,468 votes)
iMDB URL...  http://www.imdb.com/title/tt0800320/
*************************************************

Video
Duration                         : 1h 46mn
Overall bit rate                 : 8 520 Kbps
Width                            : 1 920 pixels
Height                           : 816 pixels
Display aspect ratio             : 2.35:1
Frame rate                       : 23.976 fps
Stream size                      : 5.07 GiB (80%)

Audio
Format                           : DTS
Format/Info                      : Digital Theater Systems
Bit rate                         : 1 510 Kbps
Channel(s)                       : 6 channels
Channel positions                : Front: L C R, Surround: L R, LFE
Sampling rate                    : 48.0 KHz
Resolution                       : 24 bits
Stream size                      : 1.12 GiB (18%)
Language                         : English

Subtitles: Dutch, French (*.srt)
********************************
